<svg xmlns="http://www.w3.org/2000/svg" xmlns:xlink="http://www.w3.org/1999/xlink" width="500" zoomAndPan="magnify" viewBox="0 0 375 374.999991" height="500" preserveAspectRatio="xMidYMid meet" version="1.0"><defs><clipPath id="0e567a3fd8"><path d="M 95.835938 86 L 277 86 L 277 293 L 95.835938 293 Z M 95.835938 86 " clip-rule="nonzero"/></clipPath><clipPath id="8c8d95672a"><path d="M 138.972656 116.132812 L 235.722656 116.132812 L 235.722656 258.632812 L 138.972656 258.632812 Z M 138.972656 116.132812 " clip-rule="nonzero"/></clipPath></defs><g clip-path="url(#0e567a3fd8)"><path fill="#aea9d8" d="M 95.835938 192.964844 C 98.273438 157.484375 108.828125 128.449219 131.25 106.734375 C 149.800781 88.898438 177.46875 78.511719 207.699219 92.964844 C 237.054688 106.921875 262.160156 127.257812 272.78125 157.609375 C 278.710938 174.691406 277.152344 197.597656 270.90625 215.054688 C 256.664062 254.980469 230.246094 284.707031 184.964844 291.402344 C 152.613281 296.222656 123.882812 275.257812 113.761719 241.027344 C 111.265625 232.640625 102.082031 226.382812 99.085938 217.996094 C 95.898438 209.113281 96.460938 198.847656 95.835938 193.027344 Z M 95.835938 192.964844 " fill-opacity="1" fill-rule="nonzero"/></g><path fill="#ffffff" d="M 204.417969 210.183594 C 207.566406 210.183594 209.574219 209.410156 210.925781 208.34375 C 212.433594 207.152344 213.253906 205.523438 213.671875 203.558594 C 214.011719 201.96875 214.054688 200.101562 214.3125 198.207031 C 214.582031 196.203125 215.128906 194.113281 217.382812 192.601562 C 218.175781 192.074219 218.648438 191.183594 218.648438 190.230469 C 218.648438 189.28125 218.171875 188.390625 217.378906 187.863281 C 215.125 186.359375 214.582031 184.269531 214.3125 182.269531 C 214.054688 180.375 214.011719 178.507812 213.671875 176.914062 C 213.253906 174.949219 212.433594 173.320312 210.925781 172.128906 C 209.574219 171.058594 207.566406 170.285156 204.417969 170.285156 C 202.847656 170.285156 201.574219 171.5625 201.574219 173.132812 C 201.574219 174.707031 202.847656 175.984375 204.417969 175.984375 C 205.742188 175.984375 206.667969 176.117188 207.296875 176.527344 C 207.96875 176.96875 208.0625 177.753906 208.195312 178.585938 C 208.367188 179.65625 208.429688 180.835938 208.554688 182.042969 C 208.851562 184.855469 209.472656 187.753906 211.550781 190.238281 C 209.472656 192.71875 208.851562 195.621094 208.554688 198.429688 C 208.429688 199.640625 208.367188 200.820312 208.195312 201.886719 C 208.0625 202.71875 207.972656 203.5 207.296875 203.941406 C 206.671875 204.351562 205.742188 204.484375 204.417969 204.484375 C 202.847656 204.484375 201.574219 205.761719 201.574219 207.335938 C 201.574219 208.90625 202.847656 210.183594 204.417969 210.183594 Z M 204.417969 210.183594 " fill-opacity="1" fill-rule="evenodd"/><path fill="#ffffff" d="M 170.273438 204.484375 C 168.949219 204.484375 168.023438 204.351562 167.398438 203.941406 C 166.71875 203.5 166.628906 202.71875 166.496094 201.886719 C 166.324219 200.820312 166.265625 199.640625 166.140625 198.429688 C 165.84375 195.621094 165.21875 192.71875 163.140625 190.238281 C 165.21875 187.753906 165.84375 184.855469 166.140625 182.042969 C 166.265625 180.835938 166.324219 179.65625 166.496094 178.585938 C 166.628906 177.753906 166.722656 176.96875 167.398438 176.527344 C 168.027344 176.117188 168.949219 175.984375 170.273438 175.984375 C 171.84375 175.984375 173.117188 174.707031 173.117188 173.132812 C 173.117188 171.5625 171.84375 170.285156 170.273438 170.285156 C 167.125 170.285156 165.121094 171.058594 163.769531 172.128906 C 162.261719 173.320312 161.4375 174.949219 161.019531 176.914062 C 160.679688 178.507812 160.636719 180.375 160.378906 182.269531 C 160.109375 184.269531 159.566406 186.359375 157.3125 187.863281 C 156.519531 188.390625 156.046875 189.28125 156.046875 190.230469 C 156.046875 191.183594 156.519531 192.074219 157.308594 192.601562 C 159.5625 194.113281 160.109375 196.203125 160.378906 198.207031 C 160.636719 200.101562 160.679688 201.96875 161.019531 203.558594 C 161.4375 205.523438 162.261719 207.152344 163.769531 208.34375 C 165.121094 209.410156 167.125 210.183594 170.273438 210.183594 C 171.84375 210.183594 173.117188 208.90625 173.117188 207.335938 C 173.117188 205.761719 171.84375 204.484375 170.273438 204.484375 Z M 170.273438 204.484375 " fill-opacity="1" fill-rule="evenodd"/><path fill="#ffffff" d="M 190.335938 172.234375 L 178.953125 206.433594 C 178.460938 207.925781 179.265625 209.539062 180.757812 210.039062 C 182.246094 210.535156 183.859375 209.726562 184.355469 208.234375 L 195.738281 174.035156 C 196.234375 172.542969 195.425781 170.929688 193.9375 170.429688 C 192.449219 169.933594 190.835938 170.742188 190.335938 172.234375 Z M 190.335938 172.234375 " fill-opacity="1" fill-rule="evenodd"/><g clip-path="url(#8c8d95672a)"><path fill="#ffffff" d="M 203.585938 116.96875 C 203.054688 116.433594 202.328125 116.132812 201.574219 116.132812 L 147.507812 116.132812 C 145.257812 116.132812 143.105469 117 141.515625 118.53125 C 139.878906 120.101562 138.972656 122.234375 138.972656 124.457031 L 138.972656 250.3125 C 138.972656 252.53125 139.878906 254.667969 141.515625 256.238281 C 143.105469 257.769531 145.257812 258.632812 147.507812 258.632812 L 227.183594 258.632812 C 229.433594 258.632812 231.589844 257.769531 233.179688 256.238281 C 234.8125 254.667969 235.71875 252.53125 235.71875 250.3125 C 235.71875 250.3125 235.71875 150.335938 235.71875 150.335938 C 235.71875 149.578125 235.421875 148.851562 234.886719 148.320312 Z M 230.027344 244.382812 L 230.027344 250.3125 C 230.027344 250.992188 229.738281 251.644531 229.238281 252.125 C 228.695312 252.648438 227.953125 252.933594 227.183594 252.933594 L 147.507812 252.933594 C 146.742188 252.933594 146 252.648438 145.453125 252.125 C 144.953125 251.644531 144.664062 250.992188 144.664062 250.3125 L 144.664062 244.382812 Z M 198.726562 121.835938 L 147.507812 121.835938 C 146.742188 121.835938 146 122.121094 145.453125 122.644531 C 144.953125 123.125 144.664062 123.773438 144.664062 124.457031 L 144.664062 238.683594 L 230.027344 238.683594 L 230.027344 153.183594 L 207.265625 153.183594 C 205 153.183594 202.828125 152.285156 201.230469 150.679688 C 199.628906 149.078125 198.726562 146.902344 198.726562 144.632812 Z M 204.417969 125.863281 L 204.417969 144.632812 C 204.417969 145.390625 204.71875 146.117188 205.253906 146.648438 C 205.785156 147.183594 206.511719 147.484375 207.265625 147.484375 L 226.003906 147.484375 Z M 204.417969 125.863281 " fill-opacity="1" fill-rule="evenodd"/></g></svg>