<svg xmlns="http://www.w3.org/2000/svg" xmlns:xlink="http://www.w3.org/1999/xlink" width="500" zoomAndPan="magnify" viewBox="0 0 375 374.999991" height="500" preserveAspectRatio="xMidYMid meet" version="1.0"><defs><clipPath id="082b52fe74"><path d="M 121.050781 129.027344 L 253.800781 129.027344 L 253.800781 246.027344 L 121.050781 246.027344 Z M 121.050781 129.027344 " clip-rule="nonzero"/></clipPath></defs><path fill="#aea9d8" d="M 90.734375 193.660156 C 91.882812 162.734375 97.628906 137.503906 119.972656 117.601562 C 158.65625 83.121094 233.679688 83.90625 268.917969 120.890625 C 304.316406 158.035156 301.078125 219.9375 256.492188 248.824219 C 241.613281 258.488281 226.476562 268.519531 210.132812 275.152344 C 165.914062 293.121094 106.921875 258.957031 94.023438 216.070312 C 91.625 208.027344 91.519531 199.25 90.734375 193.710938 Z M 90.734375 193.660156 " fill-opacity="1" fill-rule="nonzero"/><path fill="#ffffff" d="M 176.476562 199.621094 L 176.476562 207.757812 L 147.601562 195.222656 L 147.601562 188.265625 L 176.476562 175.734375 L 176.476562 183.925781 L 156.359375 191.6875 Z M 176.476562 199.621094 " fill-opacity="1" fill-rule="nonzero"/><path fill="#ffffff" d="M 194.332031 175.558594 L 186.292969 208.707031 C 186.027344 209.796875 185.792969 210.660156 185.589844 211.292969 C 185.390625 211.925781 185.082031 212.421875 184.671875 212.773438 C 184.261719 213.128906 183.664062 213.304688 182.878906 213.304688 C 180.925781 213.304688 179.949219 212.457031 179.949219 210.773438 C 179.949219 210.332031 180.140625 209.230469 180.523438 207.46875 L 188.53125 174.324219 C 188.953125 172.5625 189.355469 171.351562 189.738281 170.703125 C 190.121094 170.050781 190.867188 169.726562 191.976562 169.726562 C 192.933594 169.726562 193.664062 169.953125 194.171875 170.414062 C 194.679688 170.875 194.933594 171.507812 194.933594 172.3125 C 194.933594 172.90625 194.730469 173.988281 194.332031 175.558594 Z M 194.332031 175.558594 " fill-opacity="1" fill-rule="nonzero"/><path fill="#ffffff" d="M 227.25 195.222656 L 198.378906 207.816406 L 198.378906 199.679688 L 218.554688 191.746094 L 198.378906 183.925781 L 198.378906 175.847656 L 227.25 188.324219 Z M 227.25 195.222656 " fill-opacity="1" fill-rule="nonzero"/><g clip-path="url(#082b52fe74)"><path fill="#ffffff" d="M 245.835938 129.027344 L 129.019531 129.027344 C 124.621094 129.027344 121.054688 132.597656 121.054688 137.003906 L 121.054688 238.046875 C 121.054688 242.453125 124.621094 246.027344 129.019531 246.027344 L 245.835938 246.027344 C 250.234375 246.027344 253.800781 242.453125 253.800781 238.046875 L 253.800781 137.003906 C 253.800781 132.597656 250.234375 129.027344 245.835938 129.027344 Z M 225.925781 134.34375 C 228.851562 134.34375 231.234375 136.730469 231.234375 139.664062 C 231.234375 142.59375 228.851562 144.980469 225.925781 144.980469 C 222.996094 144.980469 220.613281 142.59375 220.613281 139.664062 C 220.613281 136.730469 222.996094 134.34375 225.925781 134.34375 Z M 211.320312 134.34375 C 214.25 134.34375 216.632812 136.730469 216.632812 139.664062 C 216.632812 142.59375 214.25 144.980469 211.320312 144.980469 C 208.394531 144.980469 206.011719 142.59375 206.011719 139.664062 C 206.011719 136.730469 208.394531 134.34375 211.320312 134.34375 Z M 245.835938 238.046875 L 129.019531 238.046875 L 129.019531 150.296875 L 245.835938 150.296875 Z M 240.527344 144.980469 C 237.597656 144.980469 235.214844 142.59375 235.214844 139.664062 C 235.214844 136.730469 237.597656 134.34375 240.527344 134.34375 C 243.453125 134.34375 245.835938 136.730469 245.835938 139.664062 C 245.835938 142.59375 243.453125 144.980469 240.527344 144.980469 Z M 240.527344 144.980469 " fill-opacity="1" fill-rule="nonzero"/></g></svg>