<svg xmlns="http://www.w3.org/2000/svg" xmlns:xlink="http://www.w3.org/1999/xlink" width="500" zoomAndPan="magnify" viewBox="0 0 375 374.999991" height="500" preserveAspectRatio="xMidYMid meet" version="1.0"><defs><filter x="0%" y="0%" width="100%" height="100%" id="541110033b"><feColorMatrix values="0 0 0 0 1 0 0 0 0 1 0 0 0 0 1 0 0 0 1 0" color-interpolation-filters="sRGB"/></filter><g/><mask id="17d13a6892"><g filter="url(#541110033b)"><rect x="-37.5" width="450" fill="#000000" y="-37.499999" height="449.999989" fill-opacity="0.7686"/></g></mask><clipPath id="abeb4deeaa"><path d="M 0.910156 0.449219 L 186.910156 0.449219 L 186.910156 186.449219 L 0.910156 186.449219 Z M 0.910156 0.449219 " clip-rule="nonzero"/></clipPath><clipPath id="a0e037cda9"><rect x="0" width="187" y="0" height="187"/></clipPath><mask id="ebf8645d64"><g filter="url(#541110033b)"><rect x="-37.5" width="450" fill="#000000" y="-37.499999" height="449.999989" fill-opacity="0.6863"/></g></mask><clipPath id="80fa017ba3"><path d="M 0.328125 0.125 L 169 0.125 L 169 177 L 0.328125 177 Z M 0.328125 0.125 " clip-rule="nonzero"/></clipPath><clipPath id="578eac46ae"><path d="M 17.578125 0.125 L 151.398438 0.125 C 160.921875 0.125 168.648438 7.847656 168.648438 17.375 L 168.648438 159.65625 C 168.648438 169.183594 160.921875 176.90625 151.398438 176.90625 L 17.578125 176.90625 C 8.050781 176.90625 0.328125 169.183594 0.328125 159.65625 L 0.328125 17.375 C 0.328125 7.847656 8.050781 0.125 17.578125 0.125 " clip-rule="nonzero"/></clipPath><clipPath id="c080c142ed"><rect x="0" width="171" y="0" height="178"/></clipPath></defs><g mask="url(#17d13a6892)"><g transform="matrix(1, 0, 0, 1, 96, 112)"><g clip-path="url(#a0e037cda9)"><g clip-path="url(#abeb4deeaa)"><path fill="#f186c8" d="M 159.679688 27.679688 C 142.121094 10.121094 118.761719 0.449219 93.910156 0.449219 C 42.648438 0.449219 0.910156 42.148438 0.910156 93.449219 C 0.910156 144.746094 42.613281 186.449219 93.910156 186.449219 C 145.210938 186.449219 186.910156 144.746094 186.910156 93.449219 C 186.910156 68.597656 177.238281 45.238281 159.679688 27.679688 Z M 159.679688 27.679688 " fill-opacity="1" fill-rule="nonzero"/></g></g></g></g><g mask="url(#ebf8645d64)"><g transform="matrix(1, 0, 0, 1, 135, 84)"><g clip-path="url(#c080c142ed)"><g clip-path="url(#80fa017ba3)"><g clip-path="url(#578eac46ae)"><path fill="#ffffff" d="M 0.328125 0.125 L 168.367188 0.125 L 168.367188 176.894531 L 0.328125 176.894531 Z M 0.328125 0.125 " fill-opacity="1" fill-rule="nonzero"/></g></g></g></g></g><g fill="#5e01ce" fill-opacity="1"><g transform="translate(164.310229, 197.212759)"><g><path d="M 52.976562 1.640625 C 53.210938 -8.789062 60.480469 -23.089844 62.941406 -34.226562 C 65.050781 -43.71875 59.074219 -45.476562 56.613281 -45.242188 C 45.359375 -43.953125 34.109375 -15.238281 29.183594 -6.328125 C 34.578125 -24.613281 39.96875 -44.773438 28.011719 -45.59375 C 17.347656 -45.125 12.191406 -29.886719 3.164062 -3.164062 C 5.039062 -14.183594 5.390625 -17.464844 8.085938 -29.535156 C 8.4375 -34.695312 0.585938 -32.464844 -0.117188 -28.246094 C -3.046875 -9.960938 -4.453125 -0.703125 -5.15625 8.671875 C -5.507812 13.480469 1.289062 10.898438 2.109375 7.851562 C 12.894531 -27.894531 19.925781 -44.1875 27.894531 -44.070312 C 31.175781 -43.953125 22.621094 -16.527344 23.675781 -5.390625 C 24.027344 -1.640625 27.308594 -0.46875 29.535156 -3.164062 C 37.273438 -17.816406 48.640625 -44.539062 57.433594 -43.601562 C 60.128906 -42.664062 45.59375 -14.535156 48.40625 1.757812 C 50.164062 11.722656 59.308594 13.246094 66.691406 7.617188 C 77.238281 -0.234375 89.546875 -19.105469 95.992188 -27.542969 C 95.992188 -28.128906 94.46875 -28.128906 94 -27.660156 C 88.960938 -21.214844 74.660156 0.351562 64.582031 7.03125 C 57.902344 11.371094 52.742188 8.4375 52.976562 1.640625 Z M 52.976562 1.640625 "/></g></g></g><g fill="#5e01ce" fill-opacity="1"><g transform="translate(170.584006, 227.767763)"><g><path d="M 4.09375 0.140625 C 3.59375 0.140625 3.128906 0.0507812 2.703125 -0.125 C 2.285156 -0.3125 1.921875 -0.582031 1.609375 -0.9375 C 1.304688 -1.289062 1.066406 -1.722656 0.890625 -2.234375 C 0.710938 -2.742188 0.625 -3.320312 0.625 -3.96875 C 0.625 -4.601562 0.710938 -5.175781 0.890625 -5.6875 C 1.066406 -6.195312 1.3125 -6.628906 1.625 -6.984375 C 1.945312 -7.335938 2.320312 -7.609375 2.75 -7.796875 C 3.175781 -7.992188 3.644531 -8.09375 4.15625 -8.09375 C 4.632812 -8.09375 5.054688 -7.992188 5.421875 -7.796875 C 5.796875 -7.597656 6.097656 -7.367188 6.328125 -7.109375 L 5.78125 -6.453125 C 5.570312 -6.679688 5.332031 -6.863281 5.0625 -7 C 4.800781 -7.132812 4.503906 -7.203125 4.171875 -7.203125 C 3.785156 -7.203125 3.4375 -7.125 3.125 -6.96875 C 2.820312 -6.820312 2.5625 -6.609375 2.34375 -6.328125 C 2.125 -6.054688 1.957031 -5.722656 1.84375 -5.328125 C 1.726562 -4.929688 1.671875 -4.488281 1.671875 -4 C 1.671875 -3.5 1.726562 -3.046875 1.84375 -2.640625 C 1.957031 -2.242188 2.117188 -1.90625 2.328125 -1.625 C 2.546875 -1.34375 2.804688 -1.125 3.109375 -0.96875 C 3.410156 -0.8125 3.75 -0.734375 4.125 -0.734375 C 4.507812 -0.734375 4.847656 -0.8125 5.140625 -0.96875 C 5.429688 -1.125 5.707031 -1.347656 5.96875 -1.640625 L 6.53125 -1 C 6.207031 -0.632812 5.847656 -0.351562 5.453125 -0.15625 C 5.066406 0.0390625 4.613281 0.140625 4.09375 0.140625 Z M 4.09375 0.140625 "/></g></g></g><g fill="#5e01ce" fill-opacity="1"><g transform="translate(177.49626, 227.767763)"><g><path d="M 1.09375 0 L 1.09375 -7.9375 L 3.578125 -7.9375 C 3.972656 -7.9375 4.34375 -7.898438 4.6875 -7.828125 C 5.03125 -7.753906 5.328125 -7.628906 5.578125 -7.453125 C 5.828125 -7.273438 6.019531 -7.039062 6.15625 -6.75 C 6.289062 -6.46875 6.359375 -6.125 6.359375 -5.71875 C 6.359375 -5.09375 6.195312 -4.59375 5.875 -4.21875 C 5.550781 -3.851562 5.113281 -3.601562 4.5625 -3.46875 L 6.59375 0 L 5.453125 0 L 3.53125 -3.359375 L 2.09375 -3.359375 L 2.09375 0 Z M 2.09375 -4.171875 L 3.421875 -4.171875 C 4.046875 -4.171875 4.523438 -4.296875 4.859375 -4.546875 C 5.191406 -4.804688 5.359375 -5.195312 5.359375 -5.71875 C 5.359375 -6.238281 5.191406 -6.601562 4.859375 -6.8125 C 4.523438 -7.019531 4.046875 -7.125 3.421875 -7.125 L 2.09375 -7.125 Z M 2.09375 -4.171875 "/></g></g></g><g fill="#5e01ce" fill-opacity="1"><g transform="translate(184.384298, 227.767763)"><g><path d="M 1.09375 0 L 1.09375 -7.9375 L 2.09375 -7.9375 L 2.09375 0 Z M 1.09375 0 "/></g></g></g><g fill="#5e01ce" fill-opacity="1"><g transform="translate(187.568056, 227.767763)"><g><path d="M 3.296875 0.140625 C 2.734375 0.140625 2.210938 0.0351562 1.734375 -0.171875 C 1.265625 -0.378906 0.859375 -0.664062 0.515625 -1.03125 L 1.109375 -1.734375 C 1.390625 -1.429688 1.722656 -1.1875 2.109375 -1 C 2.492188 -0.820312 2.894531 -0.734375 3.3125 -0.734375 C 3.832031 -0.734375 4.238281 -0.851562 4.53125 -1.09375 C 4.820312 -1.332031 4.96875 -1.644531 4.96875 -2.03125 C 4.96875 -2.238281 4.929688 -2.410156 4.859375 -2.546875 C 4.796875 -2.691406 4.703125 -2.8125 4.578125 -2.90625 C 4.460938 -3.007812 4.320312 -3.101562 4.15625 -3.1875 C 4 -3.269531 3.828125 -3.351562 3.640625 -3.4375 L 2.5 -3.9375 C 2.320312 -4.019531 2.132812 -4.113281 1.9375 -4.21875 C 1.738281 -4.332031 1.5625 -4.46875 1.40625 -4.625 C 1.257812 -4.789062 1.132812 -4.984375 1.03125 -5.203125 C 0.9375 -5.429688 0.890625 -5.691406 0.890625 -5.984375 C 0.890625 -6.285156 0.953125 -6.5625 1.078125 -6.8125 C 1.203125 -7.070312 1.375 -7.296875 1.59375 -7.484375 C 1.820312 -7.679688 2.085938 -7.832031 2.390625 -7.9375 C 2.691406 -8.039062 3.023438 -8.09375 3.390625 -8.09375 C 3.867188 -8.09375 4.304688 -8 4.703125 -7.8125 C 5.109375 -7.632812 5.453125 -7.398438 5.734375 -7.109375 L 5.1875 -6.453125 C 4.945312 -6.691406 4.679688 -6.875 4.390625 -7 C 4.097656 -7.132812 3.765625 -7.203125 3.390625 -7.203125 C 2.941406 -7.203125 2.582031 -7.097656 2.3125 -6.890625 C 2.039062 -6.691406 1.90625 -6.410156 1.90625 -6.046875 C 1.90625 -5.847656 1.941406 -5.679688 2.015625 -5.546875 C 2.097656 -5.421875 2.203125 -5.304688 2.328125 -5.203125 C 2.460938 -5.097656 2.601562 -5.003906 2.75 -4.921875 C 2.90625 -4.847656 3.066406 -4.78125 3.234375 -4.71875 L 4.359375 -4.234375 C 4.585938 -4.140625 4.800781 -4.03125 5 -3.90625 C 5.195312 -3.78125 5.367188 -3.632812 5.515625 -3.46875 C 5.660156 -3.300781 5.773438 -3.109375 5.859375 -2.890625 C 5.953125 -2.671875 6 -2.414062 6 -2.125 C 6 -1.800781 5.9375 -1.503906 5.8125 -1.234375 C 5.6875 -0.960938 5.503906 -0.722656 5.265625 -0.515625 C 5.035156 -0.304688 4.753906 -0.144531 4.421875 -0.03125 C 4.085938 0.0820312 3.710938 0.140625 3.296875 0.140625 Z M 3.296875 0.140625 "/></g></g></g><g fill="#5e01ce" fill-opacity="1"><g transform="translate(194.032411, 227.767763)"><g><path d="M 0.5 -2.65625 L 0.5 -3.421875 L 3.28125 -3.421875 L 3.28125 -2.65625 Z M 0.5 -2.65625 "/></g></g></g><g fill="#5e01ce" fill-opacity="1"><g transform="translate(197.797231, 227.767763)"><g><path d="M 4.09375 0.140625 C 3.59375 0.140625 3.128906 0.0507812 2.703125 -0.125 C 2.285156 -0.3125 1.921875 -0.582031 1.609375 -0.9375 C 1.304688 -1.289062 1.066406 -1.722656 0.890625 -2.234375 C 0.710938 -2.742188 0.625 -3.320312 0.625 -3.96875 C 0.625 -4.601562 0.710938 -5.175781 0.890625 -5.6875 C 1.066406 -6.195312 1.3125 -6.628906 1.625 -6.984375 C 1.945312 -7.335938 2.320312 -7.609375 2.75 -7.796875 C 3.175781 -7.992188 3.644531 -8.09375 4.15625 -8.09375 C 4.632812 -8.09375 5.054688 -7.992188 5.421875 -7.796875 C 5.796875 -7.597656 6.097656 -7.367188 6.328125 -7.109375 L 5.78125 -6.453125 C 5.570312 -6.679688 5.332031 -6.863281 5.0625 -7 C 4.800781 -7.132812 4.503906 -7.203125 4.171875 -7.203125 C 3.785156 -7.203125 3.4375 -7.125 3.125 -6.96875 C 2.820312 -6.820312 2.5625 -6.609375 2.34375 -6.328125 C 2.125 -6.054688 1.957031 -5.722656 1.84375 -5.328125 C 1.726562 -4.929688 1.671875 -4.488281 1.671875 -4 C 1.671875 -3.5 1.726562 -3.046875 1.84375 -2.640625 C 1.957031 -2.242188 2.117188 -1.90625 2.328125 -1.625 C 2.546875 -1.34375 2.804688 -1.125 3.109375 -0.96875 C 3.410156 -0.8125 3.75 -0.734375 4.125 -0.734375 C 4.507812 -0.734375 4.847656 -0.8125 5.140625 -0.96875 C 5.429688 -1.125 5.707031 -1.347656 5.96875 -1.640625 L 6.53125 -1 C 6.207031 -0.632812 5.847656 -0.351562 5.453125 -0.15625 C 5.066406 0.0390625 4.613281 0.140625 4.09375 0.140625 Z M 4.09375 0.140625 "/></g></g></g><g fill="#5e01ce" fill-opacity="1"><g transform="translate(204.709485, 227.767763)"><g><path d="M 1.09375 0 L 1.09375 -7.9375 L 3.578125 -7.9375 C 3.972656 -7.9375 4.34375 -7.898438 4.6875 -7.828125 C 5.03125 -7.753906 5.328125 -7.628906 5.578125 -7.453125 C 5.828125 -7.273438 6.019531 -7.039062 6.15625 -6.75 C 6.289062 -6.46875 6.359375 -6.125 6.359375 -5.71875 C 6.359375 -5.09375 6.195312 -4.59375 5.875 -4.21875 C 5.550781 -3.851562 5.113281 -3.601562 4.5625 -3.46875 L 6.59375 0 L 5.453125 0 L 3.53125 -3.359375 L 2.09375 -3.359375 L 2.09375 0 Z M 2.09375 -4.171875 L 3.421875 -4.171875 C 4.046875 -4.171875 4.523438 -4.296875 4.859375 -4.546875 C 5.191406 -4.804688 5.359375 -5.195312 5.359375 -5.71875 C 5.359375 -6.238281 5.191406 -6.601562 4.859375 -6.8125 C 4.523438 -7.019531 4.046875 -7.125 3.421875 -7.125 L 2.09375 -7.125 Z M 2.09375 -4.171875 "/></g></g></g><g fill="#5e01ce" fill-opacity="1"><g transform="translate(211.597523, 227.767763)"><g><path d="M 1.09375 0 L 1.09375 -7.9375 L 2.09375 -7.9375 L 2.09375 0 Z M 1.09375 0 "/></g></g></g><g fill="#5e01ce" fill-opacity="1"><g transform="translate(214.78128, 227.767763)"><g><path d="M 3.296875 0.140625 C 2.734375 0.140625 2.210938 0.0351562 1.734375 -0.171875 C 1.265625 -0.378906 0.859375 -0.664062 0.515625 -1.03125 L 1.109375 -1.734375 C 1.390625 -1.429688 1.722656 -1.1875 2.109375 -1 C 2.492188 -0.820312 2.894531 -0.734375 3.3125 -0.734375 C 3.832031 -0.734375 4.238281 -0.851562 4.53125 -1.09375 C 4.820312 -1.332031 4.96875 -1.644531 4.96875 -2.03125 C 4.96875 -2.238281 4.929688 -2.410156 4.859375 -2.546875 C 4.796875 -2.691406 4.703125 -2.8125 4.578125 -2.90625 C 4.460938 -3.007812 4.320312 -3.101562 4.15625 -3.1875 C 4 -3.269531 3.828125 -3.351562 3.640625 -3.4375 L 2.5 -3.9375 C 2.320312 -4.019531 2.132812 -4.113281 1.9375 -4.21875 C 1.738281 -4.332031 1.5625 -4.46875 1.40625 -4.625 C 1.257812 -4.789062 1.132812 -4.984375 1.03125 -5.203125 C 0.9375 -5.429688 0.890625 -5.691406 0.890625 -5.984375 C 0.890625 -6.285156 0.953125 -6.5625 1.078125 -6.8125 C 1.203125 -7.070312 1.375 -7.296875 1.59375 -7.484375 C 1.820312 -7.679688 2.085938 -7.832031 2.390625 -7.9375 C 2.691406 -8.039062 3.023438 -8.09375 3.390625 -8.09375 C 3.867188 -8.09375 4.304688 -8 4.703125 -7.8125 C 5.109375 -7.632812 5.453125 -7.398438 5.734375 -7.109375 L 5.1875 -6.453125 C 4.945312 -6.691406 4.679688 -6.875 4.390625 -7 C 4.097656 -7.132812 3.765625 -7.203125 3.390625 -7.203125 C 2.941406 -7.203125 2.582031 -7.097656 2.3125 -6.890625 C 2.039062 -6.691406 1.90625 -6.410156 1.90625 -6.046875 C 1.90625 -5.847656 1.941406 -5.679688 2.015625 -5.546875 C 2.097656 -5.421875 2.203125 -5.304688 2.328125 -5.203125 C 2.460938 -5.097656 2.601562 -5.003906 2.75 -4.921875 C 2.90625 -4.847656 3.066406 -4.78125 3.234375 -4.71875 L 4.359375 -4.234375 C 4.585938 -4.140625 4.800781 -4.03125 5 -3.90625 C 5.195312 -3.78125 5.367188 -3.632812 5.515625 -3.46875 C 5.660156 -3.300781 5.773438 -3.109375 5.859375 -2.890625 C 5.953125 -2.671875 6 -2.414062 6 -2.125 C 6 -1.800781 5.9375 -1.503906 5.8125 -1.234375 C 5.6875 -0.960938 5.503906 -0.722656 5.265625 -0.515625 C 5.035156 -0.304688 4.753906 -0.144531 4.421875 -0.03125 C 4.085938 0.0820312 3.710938 0.140625 3.296875 0.140625 Z M 3.296875 0.140625 "/></g></g></g><g fill="#f648ba" fill-opacity="1"><g transform="translate(255.118845, 164.043534)"><g><path d="M 5.609375 -1.59375 L 0.40625 -3.625 L 0.40625 -4.421875 L 5.609375 -6.453125 L 5.609375 -5.59375 L 3.046875 -4.65625 L 1.421875 -4.046875 L 1.421875 -4 L 3.046875 -3.390625 L 5.609375 -2.453125 Z M 5.609375 -1.59375 "/></g></g></g><g fill="#f648ba" fill-opacity="1"><g transform="translate(261.13529, 164.043534)"><g><path d="M 0.125 1.9375 L 3.359375 -8.59375 L 4.078125 -8.59375 L 0.84375 1.9375 Z M 0.125 1.9375 "/></g></g></g><g fill="#f648ba" fill-opacity="1"><g transform="translate(265.372224, 164.043534)"><g><path d="M 0.40625 -1.59375 L 0.40625 -2.453125 L 2.96875 -3.390625 L 4.59375 -4 L 4.59375 -4.046875 L 2.96875 -4.65625 L 0.40625 -5.59375 L 0.40625 -6.453125 L 5.609375 -4.421875 L 5.609375 -3.625 Z M 0.40625 -1.59375 "/></g></g></g></svg>