<svg xmlns="http://www.w3.org/2000/svg" xmlns:xlink="http://www.w3.org/1999/xlink" width="500" zoomAndPan="magnify" viewBox="0 0 375 374.999991" height="500" preserveAspectRatio="xMidYMid meet" version="1.0"><defs><filter x="0%" y="0%" width="100%" height="100%" id="526b912208"><feColorMatrix values="0 0 0 0 1 0 0 0 0 1 0 0 0 0 1 0 0 0 1 0" color-interpolation-filters="sRGB"/></filter><g/><mask id="8177d0c5cb"><g filter="url(#526b912208)"><rect x="-37.5" width="450" fill="#000000" y="-37.499999" height="449.999989" fill-opacity="0.7686"/></g></mask><clipPath id="a4457dd151"><path d="M 0.902344 0.75 L 291.902344 0.75 L 291.902344 291.75 L 0.902344 291.75 Z M 0.902344 0.75 " clip-rule="nonzero"/></clipPath><clipPath id="acff58dbe3"><rect x="0" width="293" y="0" height="292"/></clipPath><mask id="9bb7ae7092"><g filter="url(#526b912208)"><rect x="-37.5" width="450" fill="#000000" y="-37.499999" height="449.999989" fill-opacity="0.6863"/></g></mask><clipPath id="1ead238608"><path d="M 1.011719 0.433594 L 264 0.433594 L 264 277.039062 L 1.011719 277.039062 Z M 1.011719 0.433594 " clip-rule="nonzero"/></clipPath><clipPath id="badfba292e"><path d="M 18.261719 0.433594 L 247.117188 0.433594 C 251.691406 0.433594 256.078125 2.25 259.316406 5.484375 C 262.550781 8.722656 264.367188 13.109375 264.367188 17.683594 L 264.367188 259.78125 C 264.367188 264.359375 262.550781 268.746094 259.316406 271.980469 C 256.078125 275.214844 251.691406 277.03125 247.117188 277.03125 L 18.261719 277.03125 C 13.6875 277.03125 9.300781 275.214844 6.066406 271.980469 C 2.828125 268.746094 1.011719 264.359375 1.011719 259.78125 L 1.011719 17.683594 C 1.011719 13.109375 2.828125 8.722656 6.066406 5.484375 C 9.300781 2.25 13.6875 0.433594 18.261719 0.433594 " clip-rule="nonzero"/></clipPath><clipPath id="f84b6a67f9"><rect x="0" width="268" y="0" height="278"/></clipPath></defs><g mask="url(#8177d0c5cb)"><g transform="matrix(1, 0, 0, 1, 25, 54)"><g clip-path="url(#acff58dbe3)"><g clip-path="url(#a4457dd151)"><path fill="#f186c8" d="M 249.300781 43.351562 C 221.832031 15.882812 185.28125 0.75 146.402344 0.75 C 66.203125 0.75 0.902344 65.992188 0.902344 146.25 C 0.902344 226.507812 66.144531 291.75 146.402344 291.75 C 226.660156 291.75 291.902344 226.507812 291.902344 146.25 C 291.902344 107.371094 276.773438 70.824219 249.300781 43.351562 Z M 249.300781 43.351562 " fill-opacity="1" fill-rule="nonzero"/></g></g></g></g><g mask="url(#9bb7ae7092)"><g transform="matrix(1, 0, 0, 1, 85, 10)"><g clip-path="url(#f84b6a67f9)"><g clip-path="url(#1ead238608)"><g clip-path="url(#badfba292e)"><path fill="#ffffff" d="M 1.011719 0.433594 L 263.929688 0.433594 L 263.929688 277.007812 L 1.011719 277.007812 Z M 1.011719 0.433594 " fill-opacity="1" fill-rule="nonzero"/></g></g></g></g></g><g fill="#5e01ce" fill-opacity="1"><g transform="translate(131.358877, 187.374488)"><g><path d="M 82.890625 2.566406 C 83.257812 -13.753906 94.625 -36.125 98.476562 -53.546875 C 101.777344 -68.402344 92.425781 -71.152344 88.574219 -70.785156 C 70.96875 -68.769531 53.363281 -23.839844 45.664062 -9.902344 C 54.097656 -38.511719 62.535156 -70.054688 43.828125 -71.335938 C 27.140625 -70.601562 19.070312 -46.761719 4.953125 -4.953125 C 7.886719 -22.191406 8.4375 -27.324219 12.652344 -46.214844 C 13.203125 -54.28125 0.917969 -50.796875 -0.183594 -44.195312 C -4.769531 -15.585938 -6.96875 -1.101562 -8.070312 13.570312 C -8.617188 21.089844 2.015625 17.054688 3.300781 12.285156 C 20.171875 -43.644531 31.175781 -69.136719 43.644531 -68.953125 C 48.78125 -68.769531 35.394531 -25.855469 37.042969 -8.4375 C 37.59375 -2.566406 42.730469 -0.734375 46.214844 -4.953125 C 58.316406 -27.875 76.105469 -69.6875 89.859375 -68.21875 C 94.078125 -66.753906 71.335938 -22.738281 75.738281 2.75 C 78.488281 18.339844 92.792969 20.722656 104.347656 11.921875 C 120.851562 -0.367188 140.105469 -29.890625 150.191406 -43.09375 C 150.191406 -44.011719 147.808594 -44.011719 147.074219 -43.277344 C 139.191406 -33.191406 116.816406 0.550781 101.046875 11.003906 C 90.59375 17.789062 82.523438 13.203125 82.890625 2.566406 Z M 82.890625 2.566406 "/></g></g></g><g fill="#5e01ce" fill-opacity="1"><g transform="translate(141.17492, 235.181341)"><g><path d="M 6.40625 0.234375 C 5.625 0.234375 4.90625 0.0859375 4.25 -0.203125 C 3.59375 -0.492188 3.019531 -0.914062 2.53125 -1.46875 C 2.039062 -2.019531 1.660156 -2.695312 1.390625 -3.5 C 1.117188 -4.300781 0.984375 -5.207031 0.984375 -6.21875 C 0.984375 -7.21875 1.117188 -8.113281 1.390625 -8.90625 C 1.671875 -9.707031 2.054688 -10.382812 2.546875 -10.9375 C 3.046875 -11.488281 3.628906 -11.910156 4.296875 -12.203125 C 4.972656 -12.503906 5.707031 -12.65625 6.5 -12.65625 C 7.257812 -12.65625 7.925781 -12.5 8.5 -12.1875 C 9.070312 -11.882812 9.539062 -11.53125 9.90625 -11.125 L 9.0625 -10.109375 C 8.726562 -10.453125 8.351562 -10.734375 7.9375 -10.953125 C 7.519531 -11.171875 7.046875 -11.28125 6.515625 -11.28125 C 5.921875 -11.28125 5.382812 -11.160156 4.90625 -10.921875 C 4.425781 -10.691406 4.015625 -10.359375 3.671875 -9.921875 C 3.335938 -9.484375 3.078125 -8.953125 2.890625 -8.328125 C 2.703125 -7.710938 2.609375 -7.019531 2.609375 -6.25 C 2.609375 -5.46875 2.703125 -4.765625 2.890625 -4.140625 C 3.078125 -3.515625 3.332031 -2.976562 3.65625 -2.53125 C 3.988281 -2.09375 4.390625 -1.753906 4.859375 -1.515625 C 5.335938 -1.273438 5.875 -1.15625 6.46875 -1.15625 C 7.070312 -1.15625 7.597656 -1.273438 8.046875 -1.515625 C 8.503906 -1.765625 8.9375 -2.113281 9.34375 -2.5625 L 10.21875 -1.578125 C 9.71875 -1.003906 9.160156 -0.554688 8.546875 -0.234375 C 7.929688 0.078125 7.21875 0.234375 6.40625 0.234375 Z M 6.40625 0.234375 "/></g></g></g><g fill="#5e01ce" fill-opacity="1"><g transform="translate(151.989941, 235.181341)"><g><path d="M 1.703125 0 L 1.703125 -12.4375 L 5.59375 -12.4375 C 6.21875 -12.4375 6.800781 -12.375 7.34375 -12.25 C 7.882812 -12.132812 8.347656 -11.9375 8.734375 -11.65625 C 9.117188 -11.375 9.414062 -11.007812 9.625 -10.5625 C 9.84375 -10.125 9.953125 -9.585938 9.953125 -8.953125 C 9.953125 -7.972656 9.695312 -7.191406 9.1875 -6.609375 C 8.6875 -6.035156 8.003906 -5.640625 7.140625 -5.421875 L 10.3125 0 L 8.53125 0 L 5.53125 -5.25 L 3.28125 -5.25 L 3.28125 0 Z M 3.28125 -6.53125 L 5.359375 -6.53125 C 6.335938 -6.53125 7.082031 -6.726562 7.59375 -7.125 C 8.113281 -7.53125 8.375 -8.140625 8.375 -8.953125 C 8.375 -9.765625 8.113281 -10.332031 7.59375 -10.65625 C 7.082031 -10.988281 6.335938 -11.15625 5.359375 -11.15625 L 3.28125 -11.15625 Z M 3.28125 -6.53125 "/></g></g></g><g fill="#5e01ce" fill-opacity="1"><g transform="translate(162.767074, 235.181341)"><g><path d="M 1.703125 0 L 1.703125 -12.4375 L 3.28125 -12.4375 L 3.28125 0 Z M 1.703125 0 "/></g></g></g><g fill="#5e01ce" fill-opacity="1"><g transform="translate(167.748432, 235.181341)"><g><path d="M 5.15625 0.234375 C 4.28125 0.234375 3.46875 0.0664062 2.71875 -0.265625 C 1.976562 -0.597656 1.335938 -1.046875 0.796875 -1.609375 L 1.75 -2.703125 C 2.1875 -2.242188 2.703125 -1.867188 3.296875 -1.578125 C 3.898438 -1.296875 4.523438 -1.15625 5.171875 -1.15625 C 5.992188 -1.15625 6.628906 -1.34375 7.078125 -1.71875 C 7.535156 -2.09375 7.765625 -2.582031 7.765625 -3.1875 C 7.765625 -3.5 7.710938 -3.765625 7.609375 -3.984375 C 7.503906 -4.210938 7.359375 -4.40625 7.171875 -4.5625 C 6.992188 -4.71875 6.773438 -4.859375 6.515625 -4.984375 C 6.265625 -5.109375 5.992188 -5.238281 5.703125 -5.375 L 3.921875 -6.15625 C 3.628906 -6.28125 3.332031 -6.429688 3.03125 -6.609375 C 2.726562 -6.785156 2.457031 -7 2.21875 -7.25 C 1.976562 -7.507812 1.78125 -7.8125 1.625 -8.15625 C 1.476562 -8.507812 1.40625 -8.910156 1.40625 -9.359375 C 1.40625 -9.828125 1.5 -10.265625 1.6875 -10.671875 C 1.882812 -11.078125 2.15625 -11.425781 2.5 -11.71875 C 2.851562 -12.019531 3.265625 -12.25 3.734375 -12.40625 C 4.210938 -12.570312 4.738281 -12.65625 5.3125 -12.65625 C 6.050781 -12.65625 6.738281 -12.515625 7.375 -12.234375 C 8.007812 -11.953125 8.546875 -11.582031 8.984375 -11.125 L 8.125 -10.109375 C 7.75 -10.472656 7.328125 -10.757812 6.859375 -10.96875 C 6.398438 -11.175781 5.882812 -11.28125 5.3125 -11.28125 C 4.613281 -11.28125 4.050781 -11.117188 3.625 -10.796875 C 3.207031 -10.472656 3 -10.023438 3 -9.453125 C 3 -9.148438 3.054688 -8.894531 3.171875 -8.6875 C 3.296875 -8.476562 3.457031 -8.296875 3.65625 -8.140625 C 3.863281 -7.984375 4.085938 -7.84375 4.328125 -7.71875 C 4.566406 -7.601562 4.8125 -7.492188 5.0625 -7.390625 L 6.828125 -6.640625 C 7.179688 -6.484375 7.515625 -6.304688 7.828125 -6.109375 C 8.140625 -5.910156 8.410156 -5.679688 8.640625 -5.421875 C 8.867188 -5.171875 9.046875 -4.867188 9.171875 -4.515625 C 9.304688 -4.171875 9.375 -3.769531 9.375 -3.3125 C 9.375 -2.820312 9.273438 -2.359375 9.078125 -1.921875 C 8.890625 -1.492188 8.609375 -1.117188 8.234375 -0.796875 C 7.867188 -0.484375 7.425781 -0.234375 6.90625 -0.046875 C 6.394531 0.140625 5.8125 0.234375 5.15625 0.234375 Z M 5.15625 0.234375 "/></g></g></g><g fill="#5e01ce" fill-opacity="1"><g transform="translate(177.862664, 235.181341)"><g><path d="M 0.78125 -4.15625 L 0.78125 -5.34375 L 5.140625 -5.34375 L 5.140625 -4.15625 Z M 0.78125 -4.15625 "/></g></g></g><g fill="#5e01ce" fill-opacity="1"><g transform="translate(183.75316, 235.181341)"><g><path d="M 6.40625 0.234375 C 5.625 0.234375 4.90625 0.0859375 4.25 -0.203125 C 3.59375 -0.492188 3.019531 -0.914062 2.53125 -1.46875 C 2.039062 -2.019531 1.660156 -2.695312 1.390625 -3.5 C 1.117188 -4.300781 0.984375 -5.207031 0.984375 -6.21875 C 0.984375 -7.21875 1.117188 -8.113281 1.390625 -8.90625 C 1.671875 -9.707031 2.054688 -10.382812 2.546875 -10.9375 C 3.046875 -11.488281 3.628906 -11.910156 4.296875 -12.203125 C 4.972656 -12.503906 5.707031 -12.65625 6.5 -12.65625 C 7.257812 -12.65625 7.925781 -12.5 8.5 -12.1875 C 9.070312 -11.882812 9.539062 -11.53125 9.90625 -11.125 L 9.0625 -10.109375 C 8.726562 -10.453125 8.351562 -10.734375 7.9375 -10.953125 C 7.519531 -11.171875 7.046875 -11.28125 6.515625 -11.28125 C 5.921875 -11.28125 5.382812 -11.160156 4.90625 -10.921875 C 4.425781 -10.691406 4.015625 -10.359375 3.671875 -9.921875 C 3.335938 -9.484375 3.078125 -8.953125 2.890625 -8.328125 C 2.703125 -7.710938 2.609375 -7.019531 2.609375 -6.25 C 2.609375 -5.46875 2.703125 -4.765625 2.890625 -4.140625 C 3.078125 -3.515625 3.332031 -2.976562 3.65625 -2.53125 C 3.988281 -2.09375 4.390625 -1.753906 4.859375 -1.515625 C 5.335938 -1.273438 5.875 -1.15625 6.46875 -1.15625 C 7.070312 -1.15625 7.597656 -1.273438 8.046875 -1.515625 C 8.503906 -1.765625 8.9375 -2.113281 9.34375 -2.5625 L 10.21875 -1.578125 C 9.71875 -1.003906 9.160156 -0.554688 8.546875 -0.234375 C 7.929688 0.078125 7.21875 0.234375 6.40625 0.234375 Z M 6.40625 0.234375 "/></g></g></g><g fill="#5e01ce" fill-opacity="1"><g transform="translate(194.568182, 235.181341)"><g><path d="M 1.703125 0 L 1.703125 -12.4375 L 5.59375 -12.4375 C 6.21875 -12.4375 6.800781 -12.375 7.34375 -12.25 C 7.882812 -12.132812 8.347656 -11.9375 8.734375 -11.65625 C 9.117188 -11.375 9.414062 -11.007812 9.625 -10.5625 C 9.84375 -10.125 9.953125 -9.585938 9.953125 -8.953125 C 9.953125 -7.972656 9.695312 -7.191406 9.1875 -6.609375 C 8.6875 -6.035156 8.003906 -5.640625 7.140625 -5.421875 L 10.3125 0 L 8.53125 0 L 5.53125 -5.25 L 3.28125 -5.25 L 3.28125 0 Z M 3.28125 -6.53125 L 5.359375 -6.53125 C 6.335938 -6.53125 7.082031 -6.726562 7.59375 -7.125 C 8.113281 -7.53125 8.375 -8.140625 8.375 -8.953125 C 8.375 -9.765625 8.113281 -10.332031 7.59375 -10.65625 C 7.082031 -10.988281 6.335938 -11.15625 5.359375 -11.15625 L 3.28125 -11.15625 Z M 3.28125 -6.53125 "/></g></g></g><g fill="#5e01ce" fill-opacity="1"><g transform="translate(205.345315, 235.181341)"><g><path d="M 1.703125 0 L 1.703125 -12.4375 L 3.28125 -12.4375 L 3.28125 0 Z M 1.703125 0 "/></g></g></g><g fill="#5e01ce" fill-opacity="1"><g transform="translate(210.326672, 235.181341)"><g><path d="M 5.15625 0.234375 C 4.28125 0.234375 3.46875 0.0664062 2.71875 -0.265625 C 1.976562 -0.597656 1.335938 -1.046875 0.796875 -1.609375 L 1.75 -2.703125 C 2.1875 -2.242188 2.703125 -1.867188 3.296875 -1.578125 C 3.898438 -1.296875 4.523438 -1.15625 5.171875 -1.15625 C 5.992188 -1.15625 6.628906 -1.34375 7.078125 -1.71875 C 7.535156 -2.09375 7.765625 -2.582031 7.765625 -3.1875 C 7.765625 -3.5 7.710938 -3.765625 7.609375 -3.984375 C 7.503906 -4.210938 7.359375 -4.40625 7.171875 -4.5625 C 6.992188 -4.71875 6.773438 -4.859375 6.515625 -4.984375 C 6.265625 -5.109375 5.992188 -5.238281 5.703125 -5.375 L 3.921875 -6.15625 C 3.628906 -6.28125 3.332031 -6.429688 3.03125 -6.609375 C 2.726562 -6.785156 2.457031 -7 2.21875 -7.25 C 1.976562 -7.507812 1.78125 -7.8125 1.625 -8.15625 C 1.476562 -8.507812 1.40625 -8.910156 1.40625 -9.359375 C 1.40625 -9.828125 1.5 -10.265625 1.6875 -10.671875 C 1.882812 -11.078125 2.15625 -11.425781 2.5 -11.71875 C 2.851562 -12.019531 3.265625 -12.25 3.734375 -12.40625 C 4.210938 -12.570312 4.738281 -12.65625 5.3125 -12.65625 C 6.050781 -12.65625 6.738281 -12.515625 7.375 -12.234375 C 8.007812 -11.953125 8.546875 -11.582031 8.984375 -11.125 L 8.125 -10.109375 C 7.75 -10.472656 7.328125 -10.757812 6.859375 -10.96875 C 6.398438 -11.175781 5.882812 -11.28125 5.3125 -11.28125 C 4.613281 -11.28125 4.050781 -11.117188 3.625 -10.796875 C 3.207031 -10.472656 3 -10.023438 3 -9.453125 C 3 -9.148438 3.054688 -8.894531 3.171875 -8.6875 C 3.296875 -8.476562 3.457031 -8.296875 3.65625 -8.140625 C 3.863281 -7.984375 4.085938 -7.84375 4.328125 -7.71875 C 4.566406 -7.601562 4.8125 -7.492188 5.0625 -7.390625 L 6.828125 -6.640625 C 7.179688 -6.484375 7.515625 -6.304688 7.828125 -6.109375 C 8.140625 -5.910156 8.410156 -5.679688 8.640625 -5.421875 C 8.867188 -5.171875 9.046875 -4.867188 9.171875 -4.515625 C 9.304688 -4.171875 9.375 -3.769531 9.375 -3.3125 C 9.375 -2.820312 9.273438 -2.359375 9.078125 -1.921875 C 8.890625 -1.492188 8.609375 -1.117188 8.234375 -0.796875 C 7.867188 -0.484375 7.425781 -0.234375 6.90625 -0.046875 C 6.394531 0.140625 5.8125 0.234375 5.15625 0.234375 Z M 5.15625 0.234375 "/></g></g></g><g fill="#f648ba" fill-opacity="1"><g transform="translate(273.439465, 135.477408)"><g><path d="M 8.78125 -2.484375 L 0.640625 -5.671875 L 0.640625 -6.921875 L 8.78125 -10.109375 L 8.78125 -8.75 L 4.78125 -7.28125 L 2.234375 -6.328125 L 2.234375 -6.25 L 4.78125 -5.3125 L 8.78125 -3.828125 Z M 8.78125 -2.484375 "/></g></g></g><g fill="#f648ba" fill-opacity="1"><g transform="translate(282.85289, 135.477408)"><g><path d="M 0.1875 3.03125 L 5.25 -13.453125 L 6.390625 -13.453125 L 1.328125 3.03125 Z M 0.1875 3.03125 "/></g></g></g><g fill="#f648ba" fill-opacity="1"><g transform="translate(289.482064, 135.477408)"><g><path d="M 0.640625 -2.484375 L 0.640625 -3.828125 L 4.640625 -5.3125 L 7.1875 -6.25 L 7.1875 -6.328125 L 4.640625 -7.28125 L 0.640625 -8.75 L 0.640625 -10.109375 L 8.78125 -6.921875 L 8.78125 -5.671875 Z M 0.640625 -2.484375 "/></g></g></g></svg>