<svg xmlns="http://www.w3.org/2000/svg" xmlns:xlink="http://www.w3.org/1999/xlink" width="500" zoomAndPan="magnify" viewBox="0 0 375 374.999991" height="500" preserveAspectRatio="xMidYMid meet" version="1.0"><defs><clipPath id="3af73351e7"><path d="M 88.21875 81 L 296 81 L 296 260 L 88.21875 260 Z M 88.21875 81 " clip-rule="nonzero"/></clipPath><clipPath id="31438b0c05"><path d="M 132 134.484375 L 260 134.484375 L 260 179 L 132 179 Z M 132 134.484375 " clip-rule="nonzero"/></clipPath><clipPath id="a7563c2e7b"><path d="M 126 186 L 266 186 L 266 217.734375 L 126 217.734375 Z M 126 186 " clip-rule="nonzero"/></clipPath></defs><g clip-path="url(#3af73351e7)"><path fill="#aea9d8" d="M 88.789062 183.886719 C 88.277344 143.601562 114.855469 105.25 151.941406 91.480469 C 182.441406 80.214844 211.007812 72.363281 236.964844 101.609375 C 243.664062 109.175781 255.421875 112.25 264.847656 117.484375 C 291.828125 132.277344 303.582031 164.257812 290.238281 192.480469 C 253.492188 270.152344 165.230469 279.882812 104.804688 226.449219 C 94.808594 217.515625 93.898438 198.339844 88.789062 183.886719 Z M 88.789062 183.886719 " fill-opacity="1" fill-rule="nonzero"/></g><g clip-path="url(#31438b0c05)"><path fill="#ffffff" d="M 165.492188 164.710938 C 165.492188 166.425781 165.675781 167.816406 166 168.835938 C 166.371094 169.851562 166.832031 170.964844 167.476562 172.167969 C 167.707031 172.539062 167.800781 172.910156 167.800781 173.234375 C 167.800781 173.695312 167.523438 174.160156 166.925781 174.621094 L 164.015625 176.566406 C 163.601562 176.84375 163.183594 176.984375 162.816406 176.984375 C 162.355469 176.984375 161.890625 176.753906 161.429688 176.335938 C 160.785156 175.640625 160.230469 174.898438 159.769531 174.160156 C 159.308594 173.371094 158.84375 172.492188 158.339844 171.425781 C 154.738281 175.6875 150.214844 177.816406 144.765625 177.816406 C 140.890625 177.816406 137.796875 176.707031 135.535156 174.484375 C 133.273438 172.261719 132.117188 169.296875 132.117188 165.59375 C 132.117188 161.65625 133.503906 158.460938 136.320312 156.054688 C 139.136719 153.644531 142.875 152.441406 147.628906 152.441406 C 149.199219 152.441406 150.8125 152.582031 152.523438 152.8125 C 154.230469 153.042969 155.984375 153.414062 157.832031 153.832031 L 157.832031 150.449219 C 157.832031 146.929688 157.089844 144.476562 155.660156 143.042969 C 154.183594 141.605469 151.691406 140.914062 148.136719 140.914062 C 146.519531 140.914062 144.859375 141.097656 143.152344 141.515625 C 141.441406 141.929688 139.78125 142.441406 138.164062 143.089844 C 137.425781 143.414062 136.875 143.597656 136.550781 143.691406 C 136.226562 143.78125 135.996094 143.828125 135.8125 143.828125 C 135.164062 143.828125 134.84375 143.367188 134.84375 142.394531 L 134.84375 140.125 C 134.84375 139.382812 134.933594 138.828125 135.164062 138.503906 C 135.394531 138.179688 135.8125 137.855469 136.457031 137.53125 C 138.074219 136.699219 140.011719 136.003906 142.273438 135.449219 C 144.535156 134.847656 146.9375 134.566406 149.476562 134.566406 C 154.96875 134.566406 158.984375 135.816406 161.570312 138.320312 C 164.109375 140.820312 165.402344 144.617188 165.402344 149.710938 L 165.402344 164.714844 L 165.492188 164.714844 Z M 146.75 171.75 C 148.273438 171.75 149.84375 171.472656 151.507812 170.917969 C 153.167969 170.363281 154.644531 169.34375 155.890625 167.953125 C 156.628906 167.074219 157.183594 166.101562 157.460938 164.992188 C 157.738281 163.878906 157.921875 162.535156 157.921875 160.960938 L 157.921875 159.015625 C 156.585938 158.695312 155.152344 158.414062 153.675781 158.230469 C 152.199219 158.046875 150.769531 157.953125 149.335938 157.953125 C 146.242188 157.953125 143.980469 158.554688 142.457031 159.804688 C 140.933594 161.054688 140.195312 162.816406 140.195312 165.128906 C 140.195312 167.304688 140.75 168.925781 141.90625 170.039062 C 143.011719 171.195312 144.628906 171.75 146.75 171.75 Z M 183.820312 176.753906 C 182.988281 176.753906 182.433594 176.613281 182.0625 176.289062 C 181.699219 176.011719 181.371094 175.363281 181.09375 174.484375 L 170.246094 138.6875 C 169.96875 137.761719 169.832031 137.160156 169.832031 136.835938 C 169.832031 136.097656 170.199219 135.679688 170.941406 135.679688 L 175.464844 135.679688 C 176.339844 135.679688 176.941406 135.816406 177.265625 136.140625 C 177.632812 136.421875 177.910156 137.070312 178.1875 137.949219 L 185.941406 168.601562 L 193.144531 137.949219 C 193.371094 137.023438 193.652344 136.421875 194.019531 136.144531 C 194.390625 135.863281 195.035156 135.679688 195.867188 135.679688 L 199.558594 135.679688 C 200.4375 135.679688 201.035156 135.820312 201.40625 136.144531 C 201.773438 136.421875 202.097656 137.070312 202.28125 137.949219 L 209.578125 168.972656 L 217.5625 137.949219 C 217.839844 137.023438 218.160156 136.421875 218.488281 136.144531 C 218.851562 135.863281 219.457031 135.679688 220.285156 135.679688 L 224.582031 135.679688 C 225.316406 135.679688 225.730469 136.050781 225.730469 136.835938 C 225.730469 137.070312 225.6875 137.300781 225.644531 137.578125 C 225.59375 137.855469 225.5 138.226562 225.316406 138.734375 L 214.191406 174.53125 C 213.914062 175.457031 213.59375 176.058594 213.222656 176.335938 C 212.851562 176.613281 212.253906 176.800781 211.46875 176.800781 L 207.5 176.800781 C 206.621094 176.800781 206.023438 176.660156 205.652344 176.335938 C 205.28125 176.011719 204.960938 175.410156 204.777344 174.484375 L 197.621094 144.617188 L 190.515625 174.4375 C 190.28125 175.363281 190.003906 175.964844 189.636719 176.289062 C 189.265625 176.613281 188.617188 176.753906 187.792969 176.753906 Z M 243.132812 178.003906 C 240.730469 178.003906 238.335938 177.726562 236.027344 177.167969 C 233.71875 176.613281 231.917969 176.011719 230.71875 175.316406 C 229.976562 174.898438 229.472656 174.4375 229.285156 174.019531 C 229.101562 173.605469 229.007812 173.140625 229.007812 172.722656 L 229.007812 170.363281 C 229.007812 169.390625 229.378906 168.925781 230.070312 168.925781 C 230.347656 168.925781 230.625 168.972656 230.902344 169.066406 C 231.179688 169.15625 231.59375 169.34375 232.058594 169.527344 C 233.625 170.222656 235.335938 170.777344 237.132812 171.148438 C 238.980469 171.519531 240.78125 171.703125 242.628906 171.703125 C 245.535156 171.703125 247.796875 171.195312 249.367188 170.175781 C 250.9375 169.15625 251.765625 167.675781 251.765625 165.777344 C 251.765625 164.480469 251.351562 163.417969 250.523438 162.535156 C 249.691406 161.65625 248.121094 160.871094 245.855469 160.128906 L 239.164062 158.046875 C 235.792969 156.980469 233.304688 155.40625 231.78125 153.320312 C 230.253906 151.285156 229.472656 149.015625 229.472656 146.609375 C 229.472656 144.664062 229.886719 142.949219 230.71875 141.46875 C 231.550781 139.984375 232.65625 138.6875 234.039062 137.671875 C 235.429688 136.605469 236.996094 135.816406 238.84375 135.261719 C 240.6875 134.707031 242.628906 134.476562 244.660156 134.476562 C 245.671875 134.476562 246.734375 134.523438 247.75 134.660156 C 248.8125 134.800781 249.78125 134.984375 250.753906 135.171875 C 251.671875 135.402344 252.550781 135.632812 253.382812 135.910156 C 254.214844 136.1875 254.859375 136.464844 255.320312 136.746094 C 255.96875 137.113281 256.433594 137.484375 256.703125 137.902344 C 256.980469 138.273438 257.125 138.78125 257.125 139.429688 L 257.125 141.605469 C 257.125 142.578125 256.753906 143.089844 256.0625 143.089844 C 255.691406 143.089844 255.09375 142.902344 254.308594 142.53125 C 251.671875 141.328125 248.722656 140.726562 245.441406 140.726562 C 242.8125 140.726562 240.730469 141.144531 239.304688 142.023438 C 237.875 142.902344 237.132812 144.246094 237.132812 146.144531 C 237.132812 147.441406 237.597656 148.550781 238.523438 149.433594 C 239.441406 150.3125 241.152344 151.191406 243.597656 151.980469 L 250.152344 154.0625 C 253.476562 155.128906 255.875 156.609375 257.308594 158.507812 C 258.734375 160.40625 259.433594 162.582031 259.433594 164.992188 C 259.433594 166.980469 259.011719 168.789062 258.230469 170.363281 C 257.402344 171.9375 256.289062 173.324219 254.859375 174.4375 C 253.429688 175.59375 251.722656 176.429688 249.734375 177.03125 C 247.660156 177.679688 245.492188 178.003906 243.132812 178.003906 Z M 243.132812 178.003906 " fill-opacity="1" fill-rule="nonzero"/></g><g clip-path="url(#a7563c2e7b)"><path fill="#ffffff" d="M 251.859375 200.503906 C 236.671875 211.757812 214.609375 217.734375 195.636719 217.734375 C 169.046875 217.734375 145.089844 207.867188 126.996094 191.476562 C 125.5625 190.179688 126.855469 188.421875 128.5625 189.4375 C 148.136719 200.832031 172.277344 207.730469 197.25 207.730469 C 214.097656 207.730469 232.613281 204.214844 249.640625 196.988281 C 252.183594 195.828125 254.351562 198.652344 251.855469 200.503906 Z M 258.183594 193.28125 C 256.246094 190.78125 245.351562 192.082031 240.410156 192.683594 C 238.933594 192.867188 238.703125 191.566406 240.039062 190.59375 C 248.722656 184.484375 262.984375 186.246094 264.644531 188.28125 C 266.308594 190.367188 264.1875 204.671875 256.0625 211.527344 C 254.816406 212.59375 253.609375 212.035156 254.167969 210.648438 C 256.011719 206.066406 260.125 195.734375 258.183594 193.28125 Z M 258.183594 193.28125 " fill-opacity="1" fill-rule="nonzero"/></g></svg>